<mxfile host="65bd71144e">
    <diagram id="a_T-5h9Q82RHRgM_TcTy" name="Page-1">
        <mxGraphModel dx="1014" dy="787" grid="1" gridSize="10" guides="1" tooltips="1" connect="1" arrows="1" fold="1" page="1" pageScale="1" pageWidth="413" pageHeight="583" background="#ffffff" math="0" shadow="0">
            <root>
                <mxCell id="0"/>
                <mxCell id="1" parent="0"/>
                <mxCell id="91" value="HPC" style="rounded=0;strokeWidth=2;fontFamily=Times New Roman;fontSize=20;labelPosition=center;verticalLabelPosition=top;align=left;verticalAlign=bottom;textDirection=ltr;spacing=-20;fillColor=#f5f5f5;gradientColor=#b3b3b3;strokeColor=#666666;spacingLeft=25;fontColor=default;fontStyle=1" parent="1" vertex="1">
                    <mxGeometry x="150" y="213" width="460" height="540" as="geometry"/>
                </mxCell>
                <mxCell id="34" value="Configuration file" style="rounded=0;strokeWidth=2;fontFamily=Times New Roman;fontSize=20;labelPosition=center;verticalLabelPosition=top;align=left;verticalAlign=bottom;textDirection=ltr;spacing=-20;fillColor=#f5f5f5;gradientColor=#b3b3b3;strokeColor=#666666;fontColor=default;fontStyle=1;spacingTop=0;spacingLeft=25;" parent="1" vertex="1">
                    <mxGeometry x="150" y="80" width="460" height="130" as="geometry"/>
                </mxCell>
                <mxCell id="139" style="edgeStyle=orthogonalEdgeStyle;html=1;exitX=0.5;exitY=1;exitDx=0;exitDy=0;entryX=0;entryY=0.5;entryDx=0;entryDy=0;fontSize=16;fontFamily=Times New Roman;strokeWidth=3;fontStyle=0;" parent="1" source="30" target="38" edge="1">
                    <mxGeometry relative="1" as="geometry"/>
                </mxCell>
                <mxCell id="30" value="Weather data" style="rounded=1;strokeWidth=2;fontSize=16;fontFamily=Times New Roman;fontStyle=0;fontColor=default;" parent="1" vertex="1">
                    <mxGeometry x="170" y="130" width="120" height="60" as="geometry"/>
                </mxCell>
                <mxCell id="37" value="" style="edgeStyle=none;html=1;fontFamily=Times New Roman;fontSize=16;strokeWidth=3;fontColor=default;fontStyle=0" parent="1" source="32" target="36" edge="1">
                    <mxGeometry relative="1" as="geometry"/>
                </mxCell>
                <mxCell id="32" value="Parameter names&#10;and ranges" style="rounded=1;strokeWidth=2;fontSize=16;fontFamily=Times New Roman;fontStyle=0;fontColor=default;" parent="1" vertex="1">
                    <mxGeometry x="320" y="130" width="120" height="60" as="geometry"/>
                </mxCell>
                <mxCell id="138" style="edgeStyle=orthogonalEdgeStyle;html=1;fontSize=16;entryX=1;entryY=0.5;entryDx=0;entryDy=0;fontFamily=Times New Roman;strokeWidth=3;fontStyle=0;" parent="1" source="33" target="38" edge="1">
                    <mxGeometry relative="1" as="geometry">
                        <mxPoint x="700" y="410" as="targetPoint"/>
                        <Array as="points">
                            <mxPoint x="530" y="370"/>
                        </Array>
                    </mxGeometry>
                </mxCell>
                <mxCell id="33" value="Crop calendar and&#10;management" style="rounded=1;strokeWidth=2;fontSize=16;fontFamily=Times New Roman;fontStyle=0;fontColor=default;" parent="1" vertex="1">
                    <mxGeometry x="470" y="130" width="120" height="60" as="geometry"/>
                </mxCell>
                <mxCell id="39" value="" style="edgeStyle=none;html=1;fontFamily=Times New Roman;fontSize=16;strokeWidth=3;fontColor=default;fontStyle=0" parent="1" source="36" target="38" edge="1">
                    <mxGeometry relative="1" as="geometry"/>
                </mxCell>
                <mxCell id="36" value="Parameter sets" style="rounded=1;strokeWidth=2;fontSize=16;fontFamily=Times New Roman;fontStyle=0;fontColor=default;" parent="1" vertex="1">
                    <mxGeometry x="320" y="240" width="120" height="60" as="geometry"/>
                </mxCell>
                <mxCell id="98" style="edgeStyle=orthogonalEdgeStyle;html=1;exitX=0.5;exitY=1;exitDx=0;exitDy=0;entryX=0.5;entryY=0;entryDx=0;entryDy=0;strokeWidth=3;fontColor=default;fontStyle=0" parent="1" source="38" target="42" edge="1">
                    <mxGeometry relative="1" as="geometry"/>
                </mxCell>
                <mxCell id="99" style="edgeStyle=orthogonalEdgeStyle;html=1;exitX=0.5;exitY=1;exitDx=0;exitDy=0;entryX=0.5;entryY=0;entryDx=0;entryDy=0;strokeWidth=3;fontColor=default;fontStyle=0" parent="1" source="38" target="44" edge="1">
                    <mxGeometry relative="1" as="geometry"/>
                </mxCell>
                <mxCell id="100" style="edgeStyle=orthogonalEdgeStyle;html=1;exitX=0.5;exitY=1;exitDx=0;exitDy=0;entryX=0.5;entryY=0;entryDx=0;entryDy=0;strokeWidth=3;fontColor=default;fontStyle=0" parent="1" source="38" target="47" edge="1">
                    <mxGeometry relative="1" as="geometry"/>
                </mxCell>
                <mxCell id="38" value="Simulaiton 1,Â &#10;2,..., n" style="rounded=1;strokeWidth=2;fontSize=16;fontFamily=Times New Roman;fontStyle=0;fontColor=default;" parent="1" vertex="1">
                    <mxGeometry x="320" y="340" width="120" height="60" as="geometry"/>
                </mxCell>
                <mxCell id="87" value="Report" style="rounded=1;whiteSpace=wrap;html=1;strokeWidth=2;fontSize=16;fontFamily=Times New Roman;fontStyle=0;fontColor=default;" parent="1" vertex="1">
                    <mxGeometry x="318.25" y="790" width="120" height="60" as="geometry"/>
                </mxCell>
                <mxCell id="93" value="" style="group;fontColor=default;fontStyle=0" parent="1" vertex="1" connectable="0">
                    <mxGeometry x="206.5" y="440" width="343.5" height="60" as="geometry"/>
                </mxCell>
                <mxCell id="42" value="CPU 1" style="rounded=1;whiteSpace=wrap;html=1;strokeWidth=2;fontSize=16;fontFamily=Times New Roman;fontStyle=0;fontColor=default;" parent="93" vertex="1">
                    <mxGeometry width="69" height="60" as="geometry"/>
                </mxCell>
                <mxCell id="44" value="CPU 2" style="rounded=1;whiteSpace=wrap;html=1;strokeWidth=2;fontSize=16;fontFamily=Times New Roman;fontStyle=0;fontColor=default;" parent="93" vertex="1">
                    <mxGeometry x="84.5" width="69" height="60" as="geometry"/>
                </mxCell>
                <mxCell id="46" value="" style="endArrow=none;dashed=1;html=1;dashPattern=1 3;strokeWidth=5;fontFamily=Times New Roman;fontSize=16;spacing=3;fontColor=default;fontStyle=0" parent="93" edge="1">
                    <mxGeometry width="50" height="50" relative="1" as="geometry">
                        <mxPoint x="234.5" y="29.5" as="sourcePoint"/>
                        <mxPoint x="184.5" y="29.5" as="targetPoint"/>
                    </mxGeometry>
                </mxCell>
                <mxCell id="47" value="CPU 64" style="rounded=1;whiteSpace=wrap;html=1;strokeWidth=2;fontSize=16;fontFamily=Times New Roman;fontStyle=0;fontColor=default;" parent="93" vertex="1">
                    <mxGeometry x="274.5" width="69" height="60" as="geometry"/>
                </mxCell>
                <mxCell id="118" value="" style="group;fontColor=default;fontStyle=0" parent="1" vertex="1" connectable="0">
                    <mxGeometry x="207.5" y="526" width="342.5" height="75.79999999999995" as="geometry"/>
                </mxCell>
                <mxCell id="60" value="" style="dashed=0;outlineConnect=0;html=1;align=center;labelPosition=center;verticalLabelPosition=bottom;verticalAlign=top;shape=mxgraph.weblogos.json;strokeWidth=2;fontFamily=Times New Roman;fontSize=16;fontColor=default;fontStyle=0" parent="118" vertex="1">
                    <mxGeometry width="70" height="75.8" as="geometry"/>
                </mxCell>
                <mxCell id="94" value="" style="endArrow=none;dashed=1;dashPattern=1 3;strokeWidth=5;fontFamily=Times New Roman;fontSize=16;spacing=3;fontColor=default;fontStyle=0" parent="118" edge="1">
                    <mxGeometry width="50" height="50" relative="1" as="geometry">
                        <mxPoint x="241.5" y="37.39999999999998" as="sourcePoint"/>
                        <mxPoint x="191.5" y="37.39999999999998" as="targetPoint"/>
                    </mxGeometry>
                </mxCell>
                <mxCell id="110" value="" style="dashed=0;outlineConnect=0;html=1;align=center;labelPosition=center;verticalLabelPosition=bottom;verticalAlign=top;shape=mxgraph.weblogos.json;strokeWidth=2;fontFamily=Times New Roman;fontSize=16;fontColor=default;fontStyle=0" parent="118" vertex="1">
                    <mxGeometry x="22.5" width="70" height="75.8" as="geometry"/>
                </mxCell>
                <mxCell id="111" value="" style="dashed=0;outlineConnect=0;html=1;align=center;labelPosition=center;verticalLabelPosition=bottom;verticalAlign=top;shape=mxgraph.weblogos.json;strokeWidth=2;fontFamily=Times New Roman;fontSize=16;fontColor=default;fontStyle=0" parent="118" vertex="1">
                    <mxGeometry x="45.75" width="70" height="75.8" as="geometry"/>
                </mxCell>
                <mxCell id="103" value="" style="dashed=0;outlineConnect=0;html=1;align=center;labelPosition=center;verticalLabelPosition=bottom;verticalAlign=top;shape=mxgraph.weblogos.json;strokeWidth=2;fontFamily=Times New Roman;fontSize=16;fontColor=default;fontStyle=0" parent="118" vertex="1">
                    <mxGeometry x="68" width="70" height="75.8" as="geometry"/>
                </mxCell>
                <mxCell id="112" value="" style="dashed=0;outlineConnect=0;html=1;align=center;labelPosition=center;verticalLabelPosition=bottom;verticalAlign=top;shape=mxgraph.weblogos.json;strokeWidth=2;fontFamily=Times New Roman;fontSize=16;fontColor=default;fontStyle=0" parent="118" vertex="1">
                    <mxGeometry x="90.75" width="70" height="75.8" as="geometry"/>
                </mxCell>
                <mxCell id="113" value="" style="dashed=0;outlineConnect=0;html=1;align=center;labelPosition=center;verticalLabelPosition=bottom;verticalAlign=top;shape=mxgraph.weblogos.json;strokeWidth=2;fontFamily=Times New Roman;fontSize=16;fontColor=default;fontStyle=0" parent="118" vertex="1">
                    <mxGeometry x="112.5" width="70" height="75.8" as="geometry"/>
                </mxCell>
                <mxCell id="116" value="" style="dashed=0;outlineConnect=0;html=1;align=center;labelPosition=center;verticalLabelPosition=bottom;verticalAlign=top;shape=mxgraph.weblogos.json;strokeWidth=2;fontFamily=Times New Roman;fontSize=16;fontColor=default;fontStyle=0" parent="118" vertex="1">
                    <mxGeometry x="249.5" width="70" height="75.8" as="geometry"/>
                </mxCell>
                <mxCell id="105" value="" style="dashed=0;outlineConnect=0;html=1;align=center;labelPosition=center;verticalLabelPosition=bottom;verticalAlign=top;shape=mxgraph.weblogos.json;strokeWidth=2;fontFamily=Times New Roman;fontSize=16;fontColor=default;fontStyle=0" parent="118" vertex="1">
                    <mxGeometry x="272.5" width="70" height="75.8" as="geometry"/>
                </mxCell>
                <mxCell id="119" style="edgeStyle=orthogonalEdgeStyle;html=1;exitX=0.5;exitY=1;exitDx=0;exitDy=0;strokeWidth=3;fontColor=default;fontStyle=0" parent="1" source="42" edge="1">
                    <mxGeometry relative="1" as="geometry">
                        <mxPoint x="380" y="530" as="targetPoint"/>
                        <Array as="points">
                            <mxPoint x="241" y="510"/>
                            <mxPoint x="380" y="510"/>
                        </Array>
                    </mxGeometry>
                </mxCell>
                <mxCell id="120" style="edgeStyle=orthogonalEdgeStyle;html=1;exitX=0.5;exitY=1;exitDx=0;exitDy=0;strokeWidth=3;fontColor=default;fontStyle=0" parent="1" source="44" edge="1">
                    <mxGeometry relative="1" as="geometry">
                        <mxPoint x="380" y="530" as="targetPoint"/>
                        <Array as="points">
                            <mxPoint x="326" y="510"/>
                            <mxPoint x="380" y="510"/>
                        </Array>
                    </mxGeometry>
                </mxCell>
                <mxCell id="121" style="edgeStyle=orthogonalEdgeStyle;html=1;exitX=0.5;exitY=1;exitDx=0;exitDy=0;strokeWidth=3;fontColor=default;fontStyle=0" parent="1" source="47" edge="1">
                    <mxGeometry relative="1" as="geometry">
                        <mxPoint x="380" y="530" as="targetPoint"/>
                        <Array as="points">
                            <mxPoint x="516" y="510"/>
                            <mxPoint x="380" y="510"/>
                        </Array>
                    </mxGeometry>
                </mxCell>
                <mxCell id="123" style="edgeStyle=orthogonalEdgeStyle;html=1;entryX=0.5;entryY=0;entryDx=0;entryDy=0;strokeWidth=3;fontColor=default;fontStyle=0" parent="1" source="60" target="79" edge="1">
                    <mxGeometry relative="1" as="geometry">
                        <Array as="points">
                            <mxPoint x="243" y="620"/>
                            <mxPoint x="260" y="620"/>
                        </Array>
                    </mxGeometry>
                </mxCell>
                <mxCell id="127" style="edgeStyle=orthogonalEdgeStyle;html=1;strokeWidth=3;fontColor=default;fontStyle=0" parent="1" source="105" edge="1">
                    <mxGeometry relative="1" as="geometry">
                        <mxPoint x="260" y="660" as="targetPoint"/>
                        <Array as="points">
                            <mxPoint x="515" y="620"/>
                            <mxPoint x="260" y="620"/>
                        </Array>
                    </mxGeometry>
                </mxCell>
                <mxCell id="128" style="edgeStyle=orthogonalEdgeStyle;html=1;entryX=0.5;entryY=0;entryDx=0;entryDy=0;strokeWidth=3;fontColor=default;fontStyle=0" parent="1" source="60" edge="1">
                    <mxGeometry relative="1" as="geometry">
                        <Array as="points">
                            <mxPoint x="243" y="620"/>
                            <mxPoint x="480" y="620"/>
                        </Array>
                        <mxPoint x="480" y="660" as="targetPoint"/>
                    </mxGeometry>
                </mxCell>
                <mxCell id="129" style="edgeStyle=orthogonalEdgeStyle;html=1;entryX=0.5;entryY=0;entryDx=0;entryDy=0;strokeWidth=3;fontColor=default;fontStyle=0" parent="1" source="105" edge="1">
                    <mxGeometry relative="1" as="geometry">
                        <Array as="points">
                            <mxPoint x="515" y="620"/>
                            <mxPoint x="480" y="620"/>
                        </Array>
                        <mxPoint x="480" y="660" as="targetPoint"/>
                    </mxGeometry>
                </mxCell>
                <mxCell id="130" style="edgeStyle=orthogonalEdgeStyle;html=1;entryX=0.5;entryY=0;entryDx=0;entryDy=0;strokeWidth=3;fontColor=default;fontStyle=0" parent="1" source="60" edge="1">
                    <mxGeometry relative="1" as="geometry">
                        <Array as="points">
                            <mxPoint x="243" y="620"/>
                            <mxPoint x="340" y="620"/>
                        </Array>
                        <mxPoint x="340" y="660" as="targetPoint"/>
                    </mxGeometry>
                </mxCell>
                <mxCell id="133" style="edgeStyle=orthogonalEdgeStyle;html=1;strokeWidth=3;entryX=0.5;entryY=0;entryDx=0;entryDy=0;fontColor=default;fontStyle=0" parent="1" target="87" edge="1">
                    <mxGeometry relative="1" as="geometry">
                        <mxPoint x="380" y="780" as="targetPoint"/>
                        <Array as="points">
                            <mxPoint x="340" y="760"/>
                            <mxPoint x="378" y="760"/>
                        </Array>
                        <mxPoint x="340" y="740" as="sourcePoint"/>
                    </mxGeometry>
                </mxCell>
                <mxCell id="132" style="edgeStyle=orthogonalEdgeStyle;html=1;entryX=0.5;entryY=0;entryDx=0;entryDy=0;strokeWidth=3;fontColor=default;fontStyle=0" parent="1" source="79" target="87" edge="1">
                    <mxGeometry relative="1" as="geometry">
                        <Array as="points">
                            <mxPoint x="260" y="760"/>
                            <mxPoint x="378" y="760"/>
                        </Array>
                    </mxGeometry>
                </mxCell>
                <mxCell id="79" value="DAY 1 Si" style="shape=document;boundedLbl=1;shadow=0;sketch=0;fillStyle=solid;strokeColor=default;strokeWidth=2;fontFamily=Times New Roman;fontSize=16;fillColor=default;gradientColor=none;gradientDirection=north;rounded=1;fontStyle=0;fontColor=default;" parent="1" vertex="1">
                    <mxGeometry x="220" y="660" width="80" height="80" as="geometry"/>
                </mxCell>
                <mxCell id="134" style="edgeStyle=orthogonalEdgeStyle;html=1;entryX=0.5;entryY=0;entryDx=0;entryDy=0;strokeWidth=3;fontColor=default;fontStyle=0" parent="1" target="87" edge="1">
                    <mxGeometry relative="1" as="geometry">
                        <Array as="points">
                            <mxPoint x="480" y="760"/>
                            <mxPoint x="378" y="760"/>
                        </Array>
                        <mxPoint x="480" y="740" as="sourcePoint"/>
                    </mxGeometry>
                </mxCell>
                <mxCell id="97" value="" style="endArrow=none;dashed=1;html=1;dashPattern=1 3;strokeWidth=5;fontFamily=Times New Roman;fontSize=16;spacing=3;fontColor=default;fontStyle=0;entryX=1;entryY=0.375;entryDx=0;entryDy=0;entryPerimeter=0;" parent="1" target="140" edge="1">
                    <mxGeometry width="50" height="50" relative="1" as="geometry">
                        <mxPoint x="430" y="690" as="sourcePoint"/>
                        <mxPoint x="393" y="690" as="targetPoint"/>
                    </mxGeometry>
                </mxCell>
                <mxCell id="131" style="edgeStyle=orthogonalEdgeStyle;html=1;strokeWidth=3;fontColor=default;fontStyle=0" parent="1" edge="1">
                    <mxGeometry relative="1" as="geometry">
                        <mxPoint x="260" y="660" as="targetPoint"/>
                        <mxPoint x="260" y="601.8" as="sourcePoint"/>
                    </mxGeometry>
                </mxCell>
                <mxCell id="135" style="edgeStyle=orthogonalEdgeStyle;html=1;entryX=0.5;entryY=0;entryDx=0;entryDy=0;strokeWidth=3;fontColor=default;fontStyle=0" parent="1" source="111" target="79" edge="1">
                    <mxGeometry relative="1" as="geometry">
                        <Array as="points">
                            <mxPoint x="288" y="620"/>
                            <mxPoint x="260" y="620"/>
                        </Array>
                    </mxGeometry>
                </mxCell>
                <mxCell id="136" style="edgeStyle=orthogonalEdgeStyle;html=1;strokeWidth=3;fontColor=default;fontStyle=0" parent="1" source="103" edge="1">
                    <mxGeometry relative="1" as="geometry">
                        <mxPoint x="260" y="659" as="targetPoint"/>
                        <mxPoint x="310.5" y="610.8" as="sourcePoint"/>
                        <Array as="points">
                            <mxPoint x="311" y="620"/>
                            <mxPoint x="260" y="620"/>
                        </Array>
                    </mxGeometry>
                </mxCell>
                <mxCell id="140" value="DAY 2 Si" style="shape=document;boundedLbl=1;shadow=0;sketch=0;fillStyle=solid;strokeColor=default;strokeWidth=2;fontFamily=Times New Roman;fontSize=16;fillColor=default;gradientColor=none;gradientDirection=north;rounded=1;fontStyle=0;fontColor=default;" parent="1" vertex="1">
                    <mxGeometry x="300" y="660" width="80" height="80" as="geometry"/>
                </mxCell>
                <mxCell id="141" value="DAY N Si" style="shape=document;boundedLbl=1;shadow=0;sketch=0;fillStyle=solid;strokeColor=default;strokeWidth=2;fontFamily=Times New Roman;fontSize=16;fillColor=default;gradientColor=none;gradientDirection=north;rounded=1;fontStyle=0;fontColor=default;" parent="1" vertex="1">
                    <mxGeometry x="440" y="660" width="80" height="80" as="geometry"/>
                </mxCell>
            </root>
        </mxGraphModel>
    </diagram>
</mxfile>